<?xml version="1.0" standalone="no"?>
<!DOCTYPE svg PUBLIC "-//W3C//DTD SVG 20010904//EN"
 "http://www.w3.org/TR/2001/REC-SVG-20010904/DTD/svg10.dtd">
<svg version="1.0" xmlns="http://www.w3.org/2000/svg"
 width="56.000000pt" height="56.000000pt" viewBox="0 0 56.000000 56.000000"
 preserveAspectRatio="xMidYMid meet">

<g transform="translate(0.000000,56.000000) scale(0.100000,-0.100000)"
fill="#000000" stroke="none">
<path d="M0 544 c0 -8 5 -12 10 -9 6 3 10 10 10 16 0 5 -4 9 -10 9 -5 0 -10
-7 -10 -16z"/>
<path d="M23 534 c-27 -31 -34 -76 -8 -50 9 9 25 22 37 30 12 9 18 21 15 30
-9 22 -18 20 -44 -10z"/>
<path d="M93 553 c9 -2 23 -2 30 0 6 3 -1 5 -18 5 -16 0 -22 -2 -12 -5z"/>
<path d="M153 544 c-44 -19 -50 -34 -14 -34 24 0 29 -3 24 -17 -5 -13 -3 -15
13 -9 58 24 90 27 146 16 32 -6 67 -8 77 -5 30 9 32 32 6 49 -32 21 -205 21
-252 0z"/>
<path d="M425 550 c4 -6 11 -8 16 -5 14 9 11 15 -7 15 -8 0 -12 -5 -9 -10z"/>
<path d="M510 549 c0 -5 -6 -7 -12 -3 -7 4 -5 -2 5 -13 9 -11 17 -30 17 -43 0
-21 -2 -22 -12 -8 -20 24 -43 28 -55 9 -9 -14 -5 -22 22 -44 19 -15 40 -39 47
-54 7 -14 19 -28 26 -31 9 -3 12 21 12 97 l0 101 -25 0 c-14 0 -25 -5 -25 -11z"/>
<path d="M50 477 c0 -7 -9 -19 -19 -27 -11 -7 -18 -17 -15 -22 3 -4 2 -8 -3
-8 -4 0 -9 -16 -10 -35 -1 -19 0 -35 2 -35 3 0 14 20 25 45 11 25 32 52 45 61
32 21 32 34 0 34 -14 0 -25 -6 -25 -13z"/>
<path d="M410 473 c0 -3 13 -18 28 -32 16 -14 37 -38 47 -53 21 -33 41 -38 24
-5 -25 45 -99 114 -99 90z"/>
<path d="M104 455 c-10 -8 -14 -14 -9 -15 15 0 40 18 34 24 -3 3 -14 -1 -25
-9z"/>
<path d="M257 449 c-14 -10 -32 -16 -41 -13 -9 3 -16 1 -16 -5 0 -6 4 -11 10
-11 5 0 6 -7 3 -17 -4 -11 -3 -14 5 -9 7 4 14 -3 17 -17 6 -24 8 -24 46 -10
22 7 45 11 50 8 13 -9 49 4 49 17 0 6 -11 8 -24 6 -16 -3 -27 0 -30 9 -3 8
-10 11 -16 8 -5 -3 -10 -2 -10 4 0 5 7 14 15 19 13 7 12 10 -9 20 -20 9 -29 8
-49 -9z"/>
<path d="M337 359 c-26 -9 -66 -34 -88 -53 -37 -35 -59 -39 -59 -14 0 7 9 21
20 33 18 20 19 23 5 35 -13 11 -15 9 -15 -10 0 -13 -8 -24 -19 -27 -13 -3 -17
-11 -14 -31 3 -15 5 -36 6 -47 0 -11 6 -23 11 -27 7 -5 7 -8 -1 -8 -7 0 -13
-7 -13 -16 0 -14 3 -14 16 -4 12 11 15 11 12 0 -7 -28 19 -17 44 20 30 42 26
50 -10 24 -12 -8 -27 -12 -32 -9 -21 13 -8 34 28 45 20 7 47 19 60 26 12 8 22
11 22 6 0 -4 17 -6 39 -4 55 5 60 -14 5 -23 -37 -5 -47 -11 -54 -33 -5 -15
-16 -39 -23 -53 -13 -23 -12 -27 2 -36 15 -9 24 -7 60 14 2 2 -4 12 -13 22
-12 13 -15 27 -11 41 6 20 8 21 26 4 10 -9 19 -25 19 -36 0 -21 4 -22 31 -7
11 5 17 14 14 20 -6 8 8 13 27 10 4 0 0 15 -8 34 -8 20 -10 35 -4 35 6 0 6 9
0 26 -6 14 -8 29 -6 33 3 4 -3 12 -12 17 -12 8 -30 6 -65 -7z"/>
<path d="M3 270 c0 -36 2 -50 4 -32 2 17 2 47 0 65 -2 17 -4 3 -4 -33z"/>
<path d="M522 283 c-2 -45 -38 -154 -55 -164 -15 -10 12 -79 30 -79 9 0 25 7
35 17 15 14 18 14 18 1 0 -16 -25 -42 -50 -51 -8 -3 2 -6 23 -6 l37 -1 -1 123
c-1 83 -4 115 -10 99 -5 -13 -7 -27 -5 -30 2 -4 -7 -18 -21 -32 l-23 -25 15
46 c9 27 15 67 12 95 l-3 49 -2 -42z"/>
<path d="M552 270 c0 -14 2 -19 5 -12 2 6 2 18 0 25 -3 6 -5 1 -5 -13z"/>
<path d="M465 210 c-3 -5 -1 -10 4 -10 6 0 11 5 11 10 0 6 -2 10 -4 10 -3 0
-8 -4 -11 -10z"/>
<path d="M10 149 c0 -5 5 -7 10 -4 6 3 10 8 10 11 0 2 -4 4 -10 4 -5 0 -10 -5
-10 -11z"/>
<path d="M96 95 c16 -25 34 -33 34 -17 0 10 -33 42 -44 42 -3 0 1 -11 10 -25z"/>
<path d="M38 105 c-3 -3 8 -19 24 -35 21 -21 34 -28 45 -22 11 7 7 14 -21 35
-37 29 -40 30 -48 22z"/>
<path d="M0 50 c0 -22 5 -30 18 -31 14 0 14 -2 -3 -9 -15 -7 -10 -9 25 -9 l44
-1 -39 40 c-21 22 -40 40 -42 40 -2 0 -3 -13 -3 -30z"/>
<path d="M391 61 c-20 -13 -9 -34 20 -38 13 -2 26 -8 27 -13 7 -18 42 -11 42
8 0 39 -54 65 -89 43z"/>
<path d="M147 32 c-15 -7 -25 -17 -22 -23 4 -5 67 -9 141 -9 l134 0 -20 20
c-18 18 -35 21 -113 23 -60 1 -102 -3 -120 -11z"/>
</g>
</svg>
