<?xml version="1.0" standalone="no"?>
<!DOCTYPE svg PUBLIC "-//W3C//DTD SVG 20010904//EN"
 "http://www.w3.org/TR/2001/REC-SVG-20010904/DTD/svg10.dtd">
<svg version="1.0" xmlns="http://www.w3.org/2000/svg"
 width="56.000000pt" height="56.000000pt" viewBox="0 0 56.000000 56.000000"
 preserveAspectRatio="xMidYMid meet">

<g transform="translate(0.000000,56.000000) scale(0.100000,-0.100000)"
fill="#000000" stroke="none">
<path d="M1 510 c2 -34 6 -47 13 -41 6 4 21 7 33 6 19 -1 20 1 12 18 -6 10 -8
30 -5 43 6 21 3 24 -24 24 -30 0 -30 -1 -29 -50z"/>
<path d="M91 527 c2 -18 0 -37 -4 -43 -3 -6 0 -11 8 -11 11 0 15 12 16 41 0
31 2 36 8 21 5 -11 6 -24 3 -30 -3 -5 3 -3 14 5 10 8 16 11 12 6 -9 -10 23
-41 51 -49 22 -5 22 -5 -4 39 -32 54 -25 58 10 6 19 -29 32 -38 57 -40 18 -2
45 -4 61 -6 45 -5 40 10 -13 44 -28 18 -49 35 -46 37 3 3 17 -4 33 -15 64 -44
119 -65 191 -71 l72 -7 0 53 0 53 -236 -1 -235 0 2 -32z m89 -27 c6 -11 8 -20
6 -20 -3 0 -10 9 -16 20 -6 11 -8 20 -6 20 3 0 10 -9 16 -20z"/>
<path d="M13 453 c-13 -5 -19 -103 -8 -103 4 0 20 7 37 16 22 12 33 13 38 4 4
-6 17 -12 29 -13 18 -1 22 -6 18 -26 -5 -24 -4 -25 9 -6 8 10 14 25 14 32 0
16 16 17 25 3 4 -7 24 -8 52 -4 38 5 44 4 38 -7 -5 -8 -5 -11 0 -7 4 4 15 2
23 -5 13 -10 14 -9 4 10 -10 19 -9 20 8 16 11 -3 17 -10 13 -16 -3 -6 -1 -7 5
-3 7 4 12 1 12 -8 0 -8 -8 -20 -17 -25 -15 -8 -15 -11 -3 -12 8 -1 2 -5 -15
-8 -16 -4 -38 -4 -47 1 -23 11 -63 1 -84 -23 -17 -19 -16 -21 10 -48 16 -16
25 -34 22 -40 -4 -5 2 -14 11 -20 16 -9 16 -10 -4 -11 -12 0 -38 9 -58 20 -19
11 -35 15 -35 9 0 -6 -7 -3 -16 6 -13 12 -19 13 -24 4 -10 -14 -30 20 -30 50
0 29 17 35 24 8 l7 -22 10 25 c8 20 12 22 19 10 5 -8 10 -10 10 -4 0 19 -13
24 -28 11 -13 -10 -14 -8 -8 18 7 29 7 29 -13 11 -25 -23 -28 -5 -6 34 19 33
19 45 -1 26 -8 -9 -20 -14 -25 -11 -5 4 -9 1 -9 -5 0 -6 -4 -9 -9 -5 -6 3 -10
-62 -10 -165 l-1 -170 81 0 81 0 -7 33 c-8 37 -23 59 -36 51 -5 -3 -6 3 -2 13
6 15 4 16 -8 6 -13 -11 -21 -7 -45 19 -16 17 -23 28 -16 24 7 -4 12 -2 12 5 0
7 8 5 22 -7 12 -10 18 -13 13 -5 -6 11 -2 10 16 -2 27 -20 43 -22 33 -5 -4 6
8 2 28 -10 36 -22 84 -30 73 -12 -3 6 1 10 11 10 13 0 15 6 11 29 -3 15 -1 33
6 40 8 8 8 11 -2 11 -7 0 -9 5 -6 10 3 6 0 10 -7 10 -7 0 7 13 32 29 25 15 54
38 64 50 19 21 19 21 0 42 -10 12 -32 30 -48 40 l-29 17 39 -3 c62 -5 146 -8
187 -7 32 2 37 5 37 26 0 26 -21 36 -81 36 -25 0 -42 -7 -55 -22 l-19 -22 28
18 c16 9 34 15 40 12 7 -2 4 -5 -7 -5 -16 -1 -17 -3 -5 -18 13 -16 12 -17 -3
-5 -11 9 -18 10 -23 2 -3 -5 -13 -10 -22 -10 -11 0 -14 6 -10 23 5 19 4 20 -6
6 -10 -13 -34 -15 -142 -14 -72 1 -141 7 -155 13 -14 6 -20 11 -15 12 6 0 3 5
-5 10 -16 10 -28 11 -47 3z m241 -72 c4 -5 -3 -7 -14 -4 -23 6 -26 13 -6 13 8
0 17 -4 20 -9z m-233 -88 c-12 -20 -14 -14 -5 12 4 9 9 14 11 11 3 -2 0 -13
-6 -23z m202 -37 c-6 -29 -27 -40 -43 -21 -8 10 -6 17 12 29 31 22 36 20 31
-8z m27 4 c0 -5 -5 -10 -11 -10 -5 0 -7 5 -4 10 3 6 8 10 11 10 2 0 4 -4 4
-10z"/>
<path d="M191 251 c-8 -6 -9 -11 -3 -15 6 -3 14 -1 17 5 9 14 2 20 -14 10z"/>
<path d="M358 354 l32 -38 -28 -29 c-15 -16 -40 -35 -55 -44 -23 -11 -28 -19
-23 -38 3 -13 1 -25 -5 -27 -6 -2 1 -16 15 -31 l25 -27 -25 -6 c-19 -5 -22 -9
-14 -20 9 -10 5 -13 -22 -12 -18 0 -44 6 -58 13 -14 6 -32 10 -41 8 -27 -6 29
-103 59 -103 26 0 27 6 8 41 l-13 25 44 -6 c30 -5 43 -3 43 5 0 8 10 10 26 7
18 -3 25 -1 20 6 -3 6 0 13 6 15 10 4 9 8 -2 16 -13 9 -12 11 4 11 16 0 14 3
-8 21 -20 16 -24 24 -15 29 9 6 8 12 -4 25 -10 9 -17 19 -17 22 0 10 34 32 51
33 8 0 28 13 43 29 23 24 26 32 17 50 -7 11 -30 30 -53 42 l-41 21 31 -38z"/>
<path d="M540 381 c0 -4 -15 -8 -32 -8 -18 0 -48 0 -66 -1 l-33 -2 25 -33 26
-33 -33 -32 c-18 -18 -40 -32 -49 -32 -25 0 -43 -27 -29 -44 6 -7 9 -21 5 -30
-5 -12 1 -18 24 -22 36 -7 51 -41 22 -52 -10 -4 -18 -11 -17 -17 1 -5 -10 -11
-25 -13 -16 -2 -28 -8 -28 -13 0 -5 -18 -9 -40 -9 -42 0 -50 -9 -25 -30 18
-15 158 -6 163 10 2 6 14 10 27 10 14 0 25 7 28 20 3 11 1 20 -4 20 -17 0 -9
20 9 20 12 1 9 5 -11 16 -19 10 -27 21 -23 30 3 9 -1 22 -9 30 -23 24 -18 40
19 58 19 9 43 31 55 49 l21 32 -30 27 c-17 15 -30 30 -30 33 0 10 44 -18 62
-39 17 -21 17 -20 18 22 0 23 -4 42 -10 42 -5 0 -10 -4 -10 -9z"/>
<path d="M148 305 c-6 -13 -15 -22 -21 -18 -6 3 -7 1 -3 -5 10 -17 14 -15 31
18 9 17 13 30 10 30 -3 0 -10 -11 -17 -25z"/>
<path d="M528 260 c-15 -22 -34 -40 -42 -40 -7 0 -19 -7 -26 -15 -10 -13 -10
-19 5 -35 10 -11 15 -26 12 -34 -6 -15 12 -26 43 -26 10 0 20 -7 24 -15 3 -8
1 -15 -5 -15 -6 0 -8 -4 -4 -9 3 -6 -2 -14 -11 -19 -9 -5 -15 -13 -14 -18 0
-5 -8 -10 -20 -12 -38 -6 -20 -22 25 -22 l45 0 0 150 c0 83 -1 150 -2 150 -2
-1 -15 -19 -30 -40z"/>
</g>
</svg>
