<?xml version="1.0" standalone="no"?>
<!DOCTYPE svg PUBLIC "-//W3C//DTD SVG 20010904//EN"
 "http://www.w3.org/TR/2001/REC-SVG-20010904/DTD/svg10.dtd">
<svg version="1.0" xmlns="http://www.w3.org/2000/svg"
 width="56.000000pt" height="56.000000pt" viewBox="0 0 56.000000 56.000000"
 preserveAspectRatio="xMidYMid meet">

<g transform="translate(0.000000,56.000000) scale(0.100000,-0.100000)"
fill="#000000" stroke="none">
<path d="M0 280 l0 -280 143 0 c78 0 137 4 131 8 -13 8 -6 27 25 77 10 17 24
29 30 27 7 -1 18 12 25 29 7 16 15 29 18 27 12 -7 58 50 64 80 4 22 9 29 14
22 4 -7 13 -9 20 -5 19 12 41 73 35 98 -12 53 -13 77 -4 77 17 0 49 -20 49
-31 0 -6 -4 -7 -10 -4 -5 3 -10 1 -10 -4 0 -6 4 -11 9 -11 6 0 12 -21 14 -47
2 -27 4 12 5 85 l2 132 -280 0 -280 0 0 -280z m115 259 c-16 -4 -45 -22 -63
-39 -18 -16 -35 -30 -38 -30 -10 0 -3 37 12 58 12 18 24 22 67 21 47 -1 49 -2
22 -10z m430 -49 c3 -5 -1 -10 -10 -10 -9 0 -13 5 -10 10 3 6 8 10 10 10 2 0
7 -4 10 -10z m-179 -25 c-15 -8 -37 -15 -48 -15 -11 0 -37 -18 -57 -40 -29
-32 -43 -40 -71 -40 -26 0 -31 3 -20 10 8 5 24 10 36 10 11 0 33 14 50 31 33
36 77 58 114 59 25 0 25 0 -4 -15z m105 -12 c12 -15 12 -16 -4 -10 -13 5 -20
0 -27 -17 -13 -34 -88 -86 -119 -82 -63 8 -75 27 -43 66 17 21 19 21 34 6 20
-20 28 -20 28 -2 0 19 59 56 91 56 15 0 33 -8 40 -17z m-318 -168 c-21 -15
-34 -10 -27 9 3 8 14 12 25 9 18 -5 18 -6 2 -18z m91 -44 c3 -5 -1 -11 -9 -15
-8 -3 -17 0 -21 6 -4 7 -3 8 4 4 7 -4 12 -2 12 3 0 13 7 14 14 2z m-144 -15
c0 -2 -8 -10 -17 -17 -16 -13 -17 -12 -4 4 13 16 21 21 21 13z m110 -10 c0 -2
-7 -6 -15 -10 -8 -3 -15 -1 -15 4 0 6 7 10 15 10 8 0 15 -2 15 -4z m-50 -30
c0 -2 -8 -10 -17 -17 -16 -13 -17 -12 -4 4 13 16 21 21 21 13z"/>
<path d="M551 224 c0 -11 3 -14 6 -6 3 7 2 16 -1 19 -3 4 -6 -2 -5 -13z"/>
<path d="M535 180 c-3 -6 1 -7 9 -4 18 7 21 14 7 14 -6 0 -13 -4 -16 -10z"/>
<path d="M476 55 c4 -8 12 -15 20 -15 19 0 18 16 -2 24 -22 9 -24 8 -18 -9z"/>
<path d="M542 15 c-11 -12 -10 -15 3 -15 8 0 15 7 15 15 0 18 -2 18 -18 0z"/>
</g>
</svg>
