<?xml version="1.0" standalone="no"?>
<!DOCTYPE svg PUBLIC "-//W3C//DTD SVG 20010904//EN"
 "http://www.w3.org/TR/2001/REC-SVG-20010904/DTD/svg10.dtd">
<svg version="1.0" xmlns="http://www.w3.org/2000/svg"
 width="56.000000pt" height="56.000000pt" viewBox="0 0 56.000000 56.000000"
 preserveAspectRatio="xMidYMid meet">

<g transform="translate(0.000000,56.000000) scale(0.100000,-0.100000)"
fill="#000000" stroke="none">
<path d="M0 438 c0 -80 4 -118 10 -108 11 17 12 16 32 -38 17 -43 12 -45 -24
-14 -33 28 -21 -19 14 -55 28 -29 29 -33 12 -33 -11 0 -25 5 -31 11 -8 8 -11
-4 -12 -45 0 -45 3 -54 15 -49 18 7 39 43 36 61 -2 6 7 12 19 12 16 0 20 4 15
17 -4 10 -4 14 0 10 4 -4 13 -2 21 4 9 8 13 8 13 1 0 -6 -18 -29 -40 -51 -22
-22 -40 -44 -40 -50 0 -5 -9 -13 -20 -16 -16 -5 -20 -15 -20 -51 l0 -44 155 0
c142 0 158 2 177 20 12 11 18 20 14 20 -4 0 2 12 13 27 12 14 18 29 15 32 -4
3 -9 1 -11 -6 -2 -7 -10 -10 -17 -7 -7 3 -25 0 -39 -5 -15 -6 -27 -7 -27 -3 1
15 28 42 42 42 14 0 29 23 42 62 3 11 11 15 21 12 10 -4 15 0 15 11 0 9 4 13
10 10 6 -3 10 -2 10 4 0 5 -7 14 -16 19 -11 6 -15 17 -11 31 3 14 0 24 -9 28
-8 3 -14 11 -14 18 0 17 -57 65 -77 65 -14 0 -13 -3 3 -21 19 -22 19 -22 -4
-10 -18 10 -26 10 -38 0 -8 -6 -12 -14 -9 -17 2 -3 -7 -16 -21 -29 -20 -18
-33 -23 -55 -18 -25 6 -29 3 -36 -26 l-9 -32 -32 38 c-18 20 -31 40 -27 43 3
3 11 0 17 -6 15 -15 55 -16 63 -2 5 8 11 7 20 0 15 -13 55 2 55 20 0 21 3 26
36 55 33 30 34 32 25 78 -5 27 -19 59 -32 73 -12 13 -19 24 -15 24 11 0 104
-30 141 -46 17 -7 38 -15 48 -18 9 -3 17 -14 17 -24 0 -23 19 -42 35 -36 6 3
18 -2 25 -11 8 -10 9 -15 1 -15 -16 0 -13 -30 4 -36 8 -4 15 -16 15 -28 0 -13
3 -26 7 -30 13 -12 2 -139 -14 -169 -8 -16 -12 -31 -9 -34 2 -3 1 -10 -5 -17
-5 -6 -19 -24 -30 -39 -14 -18 -24 -25 -29 -18 -4 8 -13 5 -25 -9 -18 -20 -18
-20 63 -20 l82 0 0 280 0 280 -94 0 c-66 0 -96 -4 -99 -12 -4 -10 -6 -10 -6 0
-1 9 -44 12 -181 12 l-180 0 0 -122z m234 80 c33 -53 26 -128 -12 -128 -10 0
-13 16 -10 69 l3 69 -22 -24 c-30 -32 -35 -30 -17 6 18 36 38 38 58 8z m-47
-101 c2 -28 4 -63 5 -77 3 -21 -1 -25 -24 -26 -28 -1 -37 9 -18 21 6 3 10 14
10 23 0 10 -3 13 -8 7 -15 -21 -41 -16 -48 10 -5 21 0 32 29 60 20 19 40 35
44 35 4 0 9 -24 10 -53z m-101 -68 l16 -31 -31 18 c-23 14 -28 21 -19 31 14
18 15 17 34 -18z"/>
<path d="M320 397 c0 -2 15 -16 33 -33 l32 -29 -29 33 c-28 30 -36 37 -36 29z"/>
<path d="M105 271 c-3 -5 0 -13 6 -17 7 -4 9 -3 5 4 -3 5 0 13 6 15 9 4 10 6
1 6 -6 1 -14 -3 -18 -8z"/>
</g>
</svg>
